<svg width="38" height="38" viewBox="0 0 38 38" fill="none" xmlns="http://www.w3.org/2000/svg">
<path fill-rule="evenodd" clip-rule="evenodd" d="M27.6882 1.794V1.65341C25.1983 0.598277 22.2647 0 18.8951 0C8.38376 0 0 6.992 0 19.5827C0 30.172 7.92785 38 18.9711 38C21.9092 38 24.7967 37.4173 27.4055 36.2013L25.9618 32.2493C23.9862 33.212 21.5546 33.744 19.1991 33.744C10.714 33.744 4.73645 28.2213 4.53382 19.456C4.33119 10.6147 9.80216 4.256 19.2244 4.256C21.57 4.256 24.0434 4.708 26.2576 5.74542L27.6882 1.794ZM33.4337 18.3667C33.4908 15.425 32.9182 13.0206 31.9166 11.0844H36.8196C37.6653 13.3186 38.0589 15.75 37.9929 18.24C37.8156 24.8013 35.3587 28.3987 29.9637 28.3987C27.6082 28.3987 25.3792 27.512 24.1635 25.764C22.6944 27.4613 20.5415 28.0947 18.4645 28.0947C13.3482 28.0947 9.77683 24.5227 9.77683 19.2533C9.77683 13.8067 13.6015 10.3867 18.5405 10.3867C20.2375 10.3867 22.2638 10.9693 23.7076 12.008V11.096H27.1016L27.0256 20.1907C27.0256 22.7747 28.0387 24.1173 30.0397 24.1173C32.6992 24.1173 33.3577 21.7107 33.4337 18.3667ZM18.7685 23.788C15.9317 23.788 14.3107 22.116 14.3107 19.228C14.3107 16.416 15.8304 14.668 18.8951 14.668C21.504 14.668 22.9984 16.2387 22.9984 19.228C22.9984 22.5467 21.1494 23.788 18.7685 23.788Z" fill="#333333"/>
</svg>
