<svg width="304" height="38" viewBox="0 0 304 38" fill="none" xmlns="http://www.w3.org/2000/svg">
<path d="M52 29.56H55.6547L57.1136 24.984H65.4545L66.9281 29.56H70.5828L63.8924 8.44H58.6904L52 29.56ZM61.2546 11.8427L64.4082 21.684H58.1452L61.2546 11.8427Z" fill="#333333"/>
<path d="M85.5374 21.552C87.9542 20.4813 89.1184 18.164 89.1184 15.3187C89.1184 11.828 87.3943 9.12933 83.7101 8.55733C83.1649 8.46933 82.428 8.44 82.0154 8.44H73.2471V29.56H76.7987V22.1827H81.8386L85.4343 29.56H89.4574L85.5374 21.552ZM81.868 11.7547C82.2659 11.7547 82.7964 11.784 83.2091 11.8867C84.9775 12.3413 85.5374 13.9693 85.5374 15.3187C85.5374 16.668 84.9775 18.296 83.2091 18.736C82.7964 18.8533 82.2659 18.8827 81.868 18.8827H76.7987V11.7547H81.868Z" fill="#333333"/>
<path d="M101.354 29.56V11.7547H108.222V8.44H90.9356V11.7547H97.8029V29.56H101.354Z" fill="#333333"/>
<path d="M123.352 25.6293V20.3787H128.598V17.6067H123.352V12.3707H120.567V17.6067H115.291V20.3787H120.567V25.6293H123.352Z" fill="#333333"/>
<path d="M147.299 30C152.176 30 155.536 27.3893 156.848 23.2533L153.267 22.2707C152.442 25.0133 150.467 26.6707 147.299 26.6707C143.025 26.6707 140.874 23.62 140.874 19C140.888 14.38 143.025 11.3293 147.299 11.3293C150.467 11.3293 152.442 12.9867 153.267 15.7293L156.848 14.7467C155.536 10.6107 152.176 8 147.299 8C140.947 8 137.145 12.444 137.145 19C137.145 25.556 140.947 30 147.299 30Z" fill="#333333"/>
<path d="M169.058 30C175.424 30 179.226 25.556 179.226 19C179.226 12.444 175.424 8 169.058 8C162.707 8 158.905 12.444 158.905 19C158.905 25.556 162.707 30 169.058 30ZM169.058 26.6707C164.785 26.612 162.648 23.62 162.662 19C162.677 14.38 164.785 11.2853 169.058 11.3293C173.332 11.388 175.469 14.38 175.469 19C175.469 23.62 173.332 26.7147 169.058 26.6707Z" fill="#333333"/>
<path d="M185.49 29.56V16.0227L191.989 29.56H193.404L199.917 16.0227V29.56H203.233V8.44H200.035L192.696 23.4L185.357 8.44H182.16V29.56H185.49Z" fill="#333333"/>
<path d="M210.703 29.56V16.0227L217.202 29.56H218.617L225.131 16.0227V29.56H228.446V8.44H225.248L217.91 23.4L210.571 8.44H207.373V29.56H210.703Z" fill="#333333"/>
<path d="M236.138 26.2453V20.276H244.523V16.9613H236.138V11.7547H246.291V8.44H232.586V29.56H246.291V26.2453H236.138Z" fill="#333333"/>
<path d="M262.117 21.552C264.534 20.4813 265.698 18.164 265.698 15.3187C265.698 11.828 263.974 9.12933 260.29 8.55733C259.745 8.46933 259.008 8.44 258.595 8.44H249.827V29.56H253.378V22.1827H258.418L262.014 29.56H266.037L262.117 21.552ZM258.448 11.7547C258.846 11.7547 259.376 11.784 259.789 11.8867C261.557 12.3413 262.117 13.9693 262.117 15.3187C262.117 16.668 261.557 18.296 259.789 18.736C259.376 18.8533 258.846 18.8827 258.448 18.8827H253.378V11.7547H258.448Z" fill="#333333"/>
<path d="M277.51 30C282.388 30 285.748 27.3893 287.059 23.2533L283.478 22.2707C282.653 25.0133 280.678 26.6707 277.51 26.6707C273.236 26.6707 271.085 23.62 271.085 19C271.1 14.38 273.236 11.3293 277.51 11.3293C280.678 11.3293 282.653 12.9867 283.478 15.7293L287.059 14.7467C285.748 10.6107 282.388 8 277.51 8C271.159 8 267.357 12.444 267.357 19C267.357 25.556 271.159 30 277.51 30Z" fill="#333333"/>
<path d="M293.847 26.2453V20.276H302.232V16.9613H293.847V11.7547H304V8.44H290.295V29.56H304V26.2453H293.847Z" fill="#333333"/>
<path fill-rule="evenodd" clip-rule="evenodd" d="M27.6882 1.794V1.65341C25.1983 0.598277 22.2647 0 18.8951 0C8.38376 0 0 6.992 0 19.5827C0 30.172 7.92785 38 18.9711 38C21.9092 38 24.7967 37.4173 27.4055 36.2013L25.9618 32.2493C23.9862 33.212 21.5546 33.744 19.1991 33.744C10.714 33.744 4.73645 28.2213 4.53382 19.456C4.33119 10.6147 9.80216 4.256 19.2244 4.256C21.57 4.256 24.0434 4.708 26.2576 5.74542L27.6882 1.794ZM33.4337 18.3667C33.4908 15.425 32.9182 13.0206 31.9166 11.0844H36.8196C37.6653 13.3186 38.0589 15.75 37.9929 18.24C37.8156 24.8013 35.3587 28.3987 29.9637 28.3987C27.6082 28.3987 25.3792 27.512 24.1635 25.764C22.6944 27.4613 20.5415 28.0947 18.4645 28.0947C13.3482 28.0947 9.77683 24.5227 9.77683 19.2533C9.77683 13.8067 13.6014 10.3867 18.5405 10.3867C20.2375 10.3867 22.2638 10.9693 23.7076 12.008V11.096H27.1016L27.0256 20.1907C27.0256 22.7747 28.0387 24.1173 30.0397 24.1173C32.6992 24.1173 33.3577 21.7107 33.4337 18.3667ZM18.7685 23.788C15.9317 23.788 14.3107 22.116 14.3107 19.228C14.3107 16.416 15.8304 14.668 18.8951 14.668C21.504 14.668 22.9984 16.2387 22.9984 19.228C22.9984 22.5467 21.1494 23.788 18.7685 23.788Z" fill="#333333"/>
</svg>
