<svg width="1501" height="204" viewBox="0 0 1501 204" fill="none" xmlns="http://www.w3.org/2000/svg">
<path d="M101.376 65.204C89.72 65.204 74.964 67.436 65.168 71.776L70.872 89.88C79.552 85.912 87.984 84.796 95.3 84.796C108.94 84.796 116.132 89.384 116.132 97.816V102.156C110.924 96.824 101.748 93.228 90.464 93.228C76.204 93.228 58.1 98.932 58.1 116.292C58.1 133.776 76.204 139.48 90.464 139.48C101.748 139.48 110.924 135.884 116.132 130.676V130.924C116.132 133.032 117.124 135.264 118.364 137H147.752C145.644 133.032 144.776 129.064 144.776 124.104V98.188C144.776 76.984 128.656 65.204 101.376 65.204ZM116.628 116.912C112.288 122.244 105.096 123.608 99.392 123.608C93.564 123.608 86.372 121.996 86.372 116.292C86.372 110.712 93.564 109.1 99.392 109.1C105.096 109.1 112.288 110.464 116.628 115.796V116.912Z" fill="black"/>
<path d="M103.244 159.98C64.024 159.98 37.948 140.9 37.948 103.8C37.948 66.7 64.024 47.62 103.244 47.62C127.412 47.62 146.28 55.676 157.304 73.908L181.048 62.036C167.268 40.836 140.132 25.148 103.668 25.148C47.064 25.148 12.084 55.04 12.084 103.8C12.084 152.56 47.064 182.452 102.608 182.452C140.132 182.452 167.268 166.976 181.26 145.352L157.728 133.692C146.492 152.136 127.412 159.98 103.244 159.98Z" fill="black"/>
<path d="M290.756 67.576C278.852 67.576 264.716 70.18 255.416 74.644L260.996 90.144C269.428 85.928 277.488 84.812 285.672 84.812C300.676 84.812 308.364 89.772 308.364 100.188V104.652C303.156 99.072 293.608 94.856 281.456 94.856C266.948 94.856 248.472 100.56 248.472 118.168C248.472 135.776 266.948 141.48 281.456 141.48C293.608 141.48 303.156 137.264 308.364 131.808V131.932C308.364 134.288 309.356 136.892 310.72 139H335.52C333.412 135.032 332.544 130.94 332.544 125.98V100.436C332.544 79.232 316.92 67.576 290.756 67.576ZM308.86 118.788C304.148 125.484 295.468 127.22 288.4 127.22C281.456 127.22 272.156 125.484 272.156 118.168C272.156 110.852 281.456 109.116 288.4 109.116C295.468 109.116 304.148 110.852 308.86 117.424V118.788ZM373.893 139V105.892C377.489 94.608 388.029 89.028 402.661 89.028V68.692C390.385 68.692 379.597 73.404 373.893 83.076V70.304H349.465V139H373.893ZM466.723 118.912C462.755 120.772 458.911 122.136 454.819 122.136C448.247 122.136 443.659 118.54 443.659 112.34V87.54H470.071V70.304H443.659V54.308H419.231V70.304H407.079V87.54H419.231V116.432C419.231 133.048 431.011 141.604 446.635 141.604C454.943 141.604 464.615 139.124 470.815 134.908L466.723 118.912ZM588.553 92.128H560.777V68.444H541.433V92.128H513.533V110.604H541.433V134.412H560.777V110.604H588.553V92.128ZM749.98 121.888L729.024 113.332C725.18 120.524 718.236 123.128 710.672 123.128C698.148 123.128 689.344 116.68 689.344 104.652C689.344 92.5 698.148 86.176 710.672 86.176C718.36 86.176 724.932 88.656 728.528 95.6L749.484 87.168C743.904 76.504 731.132 67.452 710.424 67.452C683.02 67.452 665.908 81.712 665.908 104.652C665.908 127.468 683.02 141.852 710.424 141.852C731.256 141.852 744.276 132.8 749.98 121.888ZM801.377 141.852C828.905 141.852 846.265 127.592 846.265 104.652C846.265 81.588 828.905 67.576 801.377 67.576C773.725 67.576 756.365 81.588 756.365 104.652C756.365 127.592 773.725 141.852 801.377 141.852ZM801.377 123.004C788.853 123.004 779.801 116.68 779.801 104.652C779.801 92.5 788.853 86.3 801.377 86.3C813.901 86.3 822.953 92.5 822.953 104.652C822.953 116.68 813.901 123.004 801.377 123.004ZM966.896 67.824C952.636 67.824 942.468 75.14 937.88 85.308C934.036 74.768 925.108 67.824 910.724 67.824C898.944 67.824 889.52 72.66 883.94 81.464V70.304H859.512V139H883.94V98.08C888.404 90.144 894.356 86.052 902.168 86.052C911.22 86.052 915.684 91.384 915.684 99.94V139H940.112L939.988 126.228V98.576V98.328C944.452 90.268 950.528 86.052 958.34 86.052C967.392 86.052 971.856 91.384 971.856 99.94V139H996.16V98.576C996.16 80.968 986.736 67.824 966.896 67.824ZM1120.08 67.824C1105.82 67.824 1095.65 75.14 1091.06 85.308C1087.22 74.768 1078.29 67.824 1063.91 67.824C1052.13 67.824 1042.7 72.66 1037.12 81.464V70.304H1012.7V139H1037.12V98.08C1041.59 90.144 1047.54 86.052 1055.35 86.052C1064.4 86.052 1068.87 91.384 1068.87 99.94V139H1093.3L1093.17 126.228V98.576V98.328C1097.64 90.268 1103.71 86.052 1111.52 86.052C1120.58 86.052 1125.04 91.384 1125.04 99.94V139H1149.34V98.576C1149.34 80.968 1139.92 67.824 1120.08 67.824ZM1185.1 109.86H1247.84C1248.34 108.496 1248.46 106.884 1248.46 104.156C1248.46 79.852 1230.86 67.452 1206.06 67.452C1178.53 67.452 1161.79 81.588 1161.79 104.652C1161.79 127.716 1178.78 141.852 1207.92 141.852C1223.54 141.852 1236.19 138.38 1245.98 129.7L1233.58 116.68C1226.76 121.888 1220.19 124.492 1209.28 124.492C1195.39 124.492 1187.08 120.276 1185.1 109.86ZM1206.3 84.564C1216.72 84.564 1223.29 88.408 1225.9 96.468L1185.72 96.716C1188.45 88.408 1195.76 84.564 1206.3 84.564ZM1285.61 139V105.892C1289.2 94.608 1299.74 89.028 1314.38 89.028V68.692C1302.1 68.692 1291.31 73.404 1285.61 83.076V70.304H1261.18V139H1285.61ZM1403.4 121.888L1382.45 113.332C1378.6 120.524 1371.66 123.128 1364.09 123.128C1351.57 123.128 1342.77 116.68 1342.77 104.652C1342.77 92.5 1351.57 86.176 1364.09 86.176C1371.78 86.176 1378.35 88.656 1381.95 95.6L1402.91 87.168C1397.33 76.504 1384.55 67.452 1363.85 67.452C1336.44 67.452 1319.33 81.712 1319.33 104.652C1319.33 127.468 1336.44 141.852 1363.85 141.852C1384.68 141.852 1397.7 132.8 1403.4 121.888ZM1433.1 109.86H1495.84C1496.34 108.496 1496.46 106.884 1496.46 104.156C1496.46 79.852 1478.86 67.452 1454.06 67.452C1426.53 67.452 1409.79 81.588 1409.79 104.652C1409.79 127.716 1426.78 141.852 1455.92 141.852C1471.54 141.852 1484.19 138.38 1493.98 129.7L1481.58 116.68C1474.76 121.888 1468.19 124.492 1457.28 124.492C1443.39 124.492 1435.08 120.276 1433.1 109.86ZM1454.3 84.564C1464.72 84.564 1471.29 88.408 1473.9 96.468L1433.72 96.716C1436.45 88.408 1443.76 84.564 1454.3 84.564Z" fill="black"/>
</svg>
