<svg width="254" height="64" viewBox="0 0 254 64" fill="none" xmlns="http://www.w3.org/2000/svg">
<path d="M71.64 28H75.112L76.792 22.8H86.248L87.96 28H91.432L83.944 4.96H79.128L71.64 28ZM81.496 8.32L85.224 19.664H77.816L81.496 8.32ZM107.247 19.072C109.855 17.936 111.167 15.408 111.167 12.336C111.167 8.608 109.247 5.68 105.391 5.088C104.783 4.992 104.063 4.96 103.615 4.96H94.3025V28H97.6465V19.728H103.759L107.775 28H111.599L107.247 19.072ZM103.487 8.112C103.903 8.112 104.463 8.144 104.943 8.272C106.991 8.752 107.759 10.64 107.759 12.336C107.759 14.032 106.991 15.92 104.943 16.416C104.463 16.528 103.903 16.56 103.487 16.56H97.6465V8.112H103.487ZM124.203 28V8.112H131.867V4.96H113.195V8.112H120.859V28H124.203ZM148.153 23.728V17.808H154.057V15.12H148.153V9.232H145.465V15.12H139.545V17.808H145.465V23.728H148.153ZM82.856 60.48C88.168 60.48 91.736 57.584 93.096 53.04L89.704 52.128C88.792 55.344 86.504 57.296 82.856 57.296C77.96 57.296 75.464 53.76 75.496 48.48C75.512 43.2 77.96 39.664 82.856 39.664C86.504 39.664 88.792 41.616 89.704 44.832L93.096 43.92C91.736 39.376 88.168 36.48 82.856 36.48C75.944 36.48 71.96 41.36 71.96 48.48C71.96 55.6 75.944 60.48 82.856 60.48ZM106.231 60.48C113.127 60.48 117.111 55.6 117.111 48.48C117.111 41.36 113.127 36.48 106.231 36.48C99.319 36.48 95.335 41.36 95.335 48.48C95.335 55.6 99.319 60.48 106.231 60.48ZM106.231 57.296C101.335 57.264 98.871 53.76 98.887 48.48C98.903 43.2 101.335 39.616 106.231 39.664C111.127 39.696 113.559 43.2 113.559 48.48C113.559 53.76 111.127 57.344 106.231 57.296ZM123.455 60V44.224L130.911 60H132.431L139.871 44.224V59.984H143.039V36.96H139.983L131.679 54.288L123.327 36.96H120.303V60H123.455ZM150.673 60V44.224L158.129 60H159.649L167.089 44.224V59.984H170.257V36.96H167.201L158.897 54.288L150.545 36.96H147.521V60H150.673ZM178.084 56.848V49.728H187.54V46.576H178.084V40.112H189.46V36.96H174.74V60H189.46V56.848H178.084ZM206.247 51.072C208.855 49.936 210.167 47.408 210.167 44.336C210.167 40.608 208.247 37.68 204.391 37.088C203.783 36.992 203.063 36.96 202.615 36.96H193.303V60H196.647V51.728H202.759L206.775 60H210.599L206.247 51.072ZM202.487 40.112C202.903 40.112 203.463 40.144 203.943 40.272C205.991 40.752 206.759 42.64 206.759 44.336C206.759 46.032 205.991 47.92 203.943 48.416C203.463 48.528 202.903 48.56 202.487 48.56H196.647V40.112H202.487ZM223.106 60.48C228.418 60.48 231.986 57.584 233.346 53.04L229.954 52.128C229.042 55.344 226.754 57.296 223.106 57.296C218.21 57.296 215.714 53.76 215.746 48.48C215.762 43.2 218.21 39.664 223.106 39.664C226.754 39.664 229.042 41.616 229.954 44.832L233.346 43.92C231.986 39.376 228.418 36.48 223.106 36.48C216.194 36.48 212.21 41.36 212.21 48.48C212.21 55.6 216.194 60.48 223.106 60.48ZM240.209 56.848V49.728H249.665V46.576H240.209V40.112H251.585V36.96H236.865V60H251.585V56.848H240.209Z" fill="#333333"/>
<path fill-rule="evenodd" clip-rule="evenodd" d="M40.075 7.59657V7.39309C36.4713 5.86593 32.2252 5 27.3482 5C12.1344 5 0 15.12 0 33.3433C0 48.67 11.4745 60 27.4582 60C31.7107 60 35.8899 59.1567 39.6659 57.3967L37.5763 51.6767C34.7168 53.07 31.1975 53.84 27.7881 53.84C15.5071 53.84 6.85538 45.8467 6.5621 33.16C6.26883 20.3633 14.1873 11.16 27.8248 11.16C31.2197 11.16 34.7997 11.8142 38.0044 13.3157L40.075 7.59657ZM48.3909 31.5833C48.4736 27.3257 47.6448 23.8457 46.195 21.0432H53.2915C54.5155 24.2769 55.0853 27.7961 54.9897 31.4C54.7331 40.8967 51.1771 46.1033 43.3685 46.1033C39.9592 46.1033 36.7331 44.82 34.9734 42.29C32.8472 44.7467 29.7311 45.6633 26.725 45.6633C19.3197 45.6633 14.1507 40.4933 14.1507 32.8667C14.1507 24.9833 19.6863 20.0333 26.835 20.0333C29.2912 20.0333 32.224 20.8767 34.3136 22.38V21.06H39.226L39.116 34.2233C39.116 37.9633 40.5824 39.9067 43.4785 39.9067C47.3278 39.9067 48.281 36.4233 48.3909 31.5833ZM27.1649 39.43C23.059 39.43 20.7128 37.01 20.7128 32.83C20.7128 28.76 22.9124 26.23 27.3482 26.23C31.1242 26.23 33.2871 28.5033 33.2871 32.83C33.2871 37.6333 30.6109 39.43 27.1649 39.43Z" fill="#333333"/>
</svg>
