<svg width="237" height="237" viewBox="0 0 237 237" fill="none" xmlns="http://www.w3.org/2000/svg">
<path fill-rule="evenodd" clip-rule="evenodd" d="M172.687 11.1889V10.312C157.158 3.73136 138.862 0 117.846 0C52.2882 0 0 43.608 0 122.134C0 188.178 49.4447 237 118.32 237C136.644 237 154.653 233.366 170.924 225.782L161.92 201.134C149.598 207.138 134.433 210.456 119.742 210.456C66.8215 210.456 29.5405 176.012 28.2767 121.344C27.0129 66.202 61.1345 26.544 119.9 26.544C134.529 26.544 149.955 29.3631 163.764 35.8333L172.687 11.1889ZM208.521 114.55C208.877 96.2034 205.306 81.2077 199.059 69.1315H229.638C234.912 83.0657 237.367 98.2303 236.956 113.76C235.85 154.682 220.527 177.118 186.879 177.118C172.188 177.118 158.286 171.588 150.704 160.686C141.541 171.272 128.114 175.222 115.16 175.222C83.2504 175.222 60.9766 152.944 60.9766 120.08C60.9766 86.11 84.8301 64.78 115.634 64.78C126.218 64.78 138.856 68.414 147.86 74.892V69.204H169.028L168.554 125.926C168.554 142.042 174.873 150.416 187.353 150.416C203.94 150.416 208.047 135.406 208.521 114.55ZM117.056 148.362C99.3634 148.362 89.2533 137.934 89.2533 119.922C89.2533 102.384 98.7315 91.482 117.846 91.482C134.117 91.482 143.437 101.278 143.437 119.922C143.437 140.62 131.905 148.362 117.056 148.362Z" fill="white"/>
</svg>
